# xmcd
#
# Track frame offsets:
#	150
#	21287
#	42547
#	63314
#	80001
#	102836
#	122476
#	141326
#	161772
#	181198
#	196265
#	211505
#	233894
#
# Disc length: 3505 seconds
#
# Revision: 0
# Processed by: cddbd v1.5.2PL0 Copyright (c) Steve Scherf et al.
# Submitted via: EZCDAudioConverter 2.3.0.1
#
DISCID=ae0daf0d
DTITLE=Carl Carlton   - Lights Out In Wonderland 
DYEAR=2014
DGENRE=Blues
TTITLE0=Moonlight In New York
TTITLE1=Little Men In The Radio
TTITLE2=Strawberry Letter #23
TTITLE3=Strangers
TTITLE4=Invincible
TTITLE5=Cool My Heat
TTITLE6=Sailin' Shoes
TTITLE7=Mutineer
TTITLE8=White Light
TTITLE9=Lucky Bet
TTITLE10=Annie
TTITLE11=Rock And Roll Gypsies
TTITLE12=Variations Of Jaqueline Kennedy's Pillbox Hat
EXTD=
EXTT0=
EXTT1=
EXTT2=
EXTT3=
EXTT4=
EXTT5=
EXTT6=
EXTT7=
EXTT8=
EXTT9=
EXTT10=
EXTT11=
EXTT12=
PLAYORDER=
